<?xml version="1.0" encoding="UTF-8"?>
<svg version="1.1" xmlns="http://www.w3.org/2000/svg" width="200" height="200">
<path d="M0 0 C20.39836047 16.06596532 34.24089937 37.4093906 38.08984375 63.43359375 C39.94603023 94.70201516 33.91962326 119.86673329 12.90234375 143.62109375 C-1.79660738 159.49896657 -24.15147843 171.32002285 -45.8918457 172.6105957 C-77.01047933 173.21952819 -101.23344116 167.48690514 -124.59375 145.86108398 C-141.78950652 129.14838645 -151.83270153 105.65767342 -152.20288086 81.81347656 C-152.3579231 52.86460155 -144.41875634 29.38262475 -123.91015625 8.28125 C-91.04087572 -23.87964086 -36.80037867 -26.97481403 0 0 Z M-111.91015625 13.43359375 C-112.80347656 14.11615234 -112.80347656 14.11615234 -113.71484375 14.8125 C-127.57951874 25.51449567 -137.76115473 44.99774096 -140.62890625 62.06982422 C-143.31884564 84.67745715 -139.81897078 106.47894179 -126.82421875 125.484375 C-124.92673649 127.87985548 -122.95293083 130.16192476 -120.91015625 132.43359375 C-120.45511719 133.02914062 -120.00007813 133.6246875 -119.53125 134.23828125 C-108.46718196 148.5720291 -88.91690515 158.30928013 -71.27294922 161.15234375 C-49.07395564 163.7947534 -27.44396987 160.1241651 -8.828125 147.3125 C-6.44431172 145.42188947 -4.1716337 143.46770543 -1.91015625 141.43359375 C-0.94207031 140.65886719 0.02601563 139.88414062 1.0234375 139.0859375 C15.20002543 127.28068983 24.92527234 107.61824835 27.08984375 89.43359375 C28.85397914 67.00781021 25.25849132 44.88102171 10.96484375 26.80859375 C9.68305269 25.34157277 8.392453 23.88216133 7.08984375 22.43359375 C6.63480469 21.83804688 6.17976562 21.2425 5.7109375 20.62890625 C-4.99105817 6.76423126 -24.47430346 -3.41740473 -41.54638672 -6.28515625 C-67.30269315 -9.3497364 -92.31190959 -4.18992464 -111.91015625 13.43359375 Z " fill="#000000" transform="translate(156.91015625,22.56640625)"/>
<path d="M0 0 C6.95256168 3.97103242 17.84659366 3.23273518 25.44140625 1.3671875 C28.76422215 0.1609291 31.91997297 -1.12159391 34.96875 -2.91796875 C41.41727812 -5.63063372 50.2184235 -4.50420031 56.6484375 -2.18359375 C61.67528846 0.1314034 64.59757763 3.21468651 67.0859375 8.19140625 C67.17167144 10.44261367 67.19305938 12.69639928 67.18359375 14.94921875 C67.1821788 15.6122702 67.18076385 16.27532166 67.17930603 16.95846558 C67.17370504 19.07782488 67.1611525 21.19707884 67.1484375 23.31640625 C67.14342262 24.75260264 67.13885969 26.18880069 67.13476562 27.625 C67.12373532 31.1471697 67.10647009 34.6692777 67.0859375 38.19140625 C31.58292709 50.88866344 -3.56146741 51.92946134 -38.9140625 38.19140625 C-39.03096323 33.69162741 -39.10155087 29.19224338 -39.1640625 24.69140625 C-39.19757812 23.42296875 -39.23109375 22.15453125 -39.265625 20.84765625 C-39.34256296 13.46161234 -39.05252889 8.40284767 -34.9140625 2.19140625 C-25.21375457 -5.99996489 -10.70355319 -6.41117264 0 0 Z " fill="#000000" transform="translate(85.9140625,108.80859375)"/>
<path d="M0 0 C7.09558376 6.02799134 10.48785161 12.85360242 12 22 C12.56799741 32.21212002 9.61102523 39.39668498 4.1875 47.8125 C-1.66824481 53.66824481 -7.54954683 56.12253182 -15.75 56.25 C-23.10951235 56.1694214 -28.9717897 54.70489295 -34.5546875 49.640625 C-40.8263459 42.5214452 -44.64461894 33.92174561 -44.3046875 24.328125 C-43.00913612 14.42878366 -39.72082917 6.48773849 -32 0 C-22.3676054 -6.36837875 -9.53758675 -7.00203199 0 0 Z " fill="#000000" transform="translate(116,49)"/>
</svg>
